<svg width="496" height="496" xmlns="http://www.w3.org/2000/svg"><g fill="#000" fill-rule="nonzero"><path d="M248 0C111.033 0 0 111.033 0 248c0 136.967 111.033 248 248 248 136.901-.159 247.841-111.099 248-248C496 111.033 384.967 0 248 0zm0 480C119.87 480 16 376.13 16 248S119.87 16 248 16c128.072.141 231.859 103.928 232 232 0 128.13-103.87 232-232 232z"/><path d="M248 48C137.543 48 48 137.543 48 248s89.543 200 200 200c110.406-.123 199.877-89.594 200-200 0-110.457-89.543-200-200-200zm0 384c-101.62 0-184-82.38-184-184S146.38 64 248 64c101.573.115 183.885 82.427 184 184 0 101.62-82.38 184-184 184z"/><path d="M203 152h-32a8 8 0 0 0-8 8v176a8 8 0 0 0 8 8h32a8 8 0 0 0 8-8V160a8 8 0 0 0-8-8zm-8 176h-16V168h16v160zm178.99-87.72a8 8 0 0 1 0 13.44L238.22 341.488a8 8 0 0 1-12.344-6.72V159.232a8 8 0 0 1 12.344-6.72L373.99 240.28zm-132.113 79.784L354.91 247l-113.032-73.032v146.096z"/></g></svg>