<svg xmlns="http://www.w3.org/2000/svg" viewBox="0 0 496 496"><path d="M488 200h-37.6a205.93 205.93 0 0 0-25.384-61.168l26.6-26.6a8 8 0 0 0 0-11.312L395.08 44.352a8 8 0 0 0-11.312 0l-26.608 26.6A205.715 205.715 0 0 0 296 45.6V8a8 8 0 0 0-8-8h-80a8 8 0 0 0-8 8v37.6a205.694 205.694 0 0 0-61.16 25.384l-26.608-26.632a8 8 0 0 0-11.312 0L44.352 100.92a8 8 0 0 0 0 11.312l26.6 26.6A205.924 205.924 0 0 0 45.6 200H8a8 8 0 0 0-8 8v80a8 8 0 0 0 8 8h37.6a205.93 205.93 0 0 0 25.384 61.168l-26.632 26.6a8 8 0 0 0 0 11.312l56.568 56.568a8.232 8.232 0 0 0 11.312 0l26.6-26.6A205.924 205.924 0 0 0 200 450.4V488a8 8 0 0 0 8 8h80a8 8 0 0 0 8-8v-37.6a205.93 205.93 0 0 0 61.168-25.384l26.6 26.6a8 8 0 0 0 11.312 0l56.568-56.568a8 8 0 0 0 0-11.312l-26.6-26.6A205.91 205.91 0 0 0 450.4 296H488a8 8 0 0 0 8-8v-80a8 8 0 0 0-8-8zm-8 80h-36a8 8 0 0 0-7.84 6.4 190.066 190.066 0 0 1-28 67.44 8 8 0 0 0 1.008 10.08l25.504 25.496-45.256 45.256-25.496-25.504a8 8 0 0 0-10.08-1.008 190.066 190.066 0 0 1-67.44 28A8 8 0 0 0 280 444v36h-64v-36a8 8 0 0 0-6.4-7.84 190.066 190.066 0 0 1-67.44-28 8 8 0 0 0-10.08 1.008l-25.496 25.504-45.264-45.248 25.504-25.496a8 8 0 0 0 1.008-10.08 190.066 190.066 0 0 1-28-67.44A8 8 0 0 0 52 280H16v-64h36a8 8 0 0 0 7.84-6.4 190.066 190.066 0 0 1 28-67.44 8 8 0 0 0-1.008-10.08L61.32 106.576l45.256-45.256 25.504 25.504a8 8 0 0 0 10.08 1.008 190.127 190.127 0 0 1 67.432-28A8 8 0 0 0 216 52V16h64v36a8 8 0 0 0 6.4 7.84 190.127 190.127 0 0 1 67.432 28 8 8 0 0 0 10.08-1.008l25.504-25.504 45.256 45.256-25.504 25.496a8 8 0 0 0-1.008 10.08 190.066 190.066 0 0 1 28 67.44A8 8 0 0 0 444 216h36v64z"/><path d="M248 160c-48.601 0-88 39.399-88 88s39.399 88 88 88 88-39.399 88-88c-.057-48.577-39.423-87.943-88-88zm0 160c-39.764 0-72-32.236-72-72 0-39.765 32.236-72 72-72 39.765 0 72 32.235 72 72-.044 39.746-32.254 71.956-72 72z"/></svg>