<svg height="512pt" viewBox="0 0 512 512.10667" width="512pt" xmlns="http://www.w3.org/2000/svg"><path d="m256.054688 320.105469c-35.285157 0-64-28.714844-64-64 0-35.285157 28.714843-64 64-64 35.285156 0 64 28.714843 64 64 0 35.285156-28.714844 64-64 64zm0-96c-17.644532 0-32 14.359375-32 32 0 17.644531 14.355468 32 32 32 17.640624 0 32-14.355469 32-32 0-17.640625-14.359376-32-32-32zm0 0"/><path d="m384.054688 362.773438c-11.757813 0-21.335938-9.578126-21.335938-21.332032v-170.667968c0-15.808594 18.242188-26.710938 32.898438-18.046876.640624.382813 1.257812.808594 1.832031 1.277344l106.667969 85.335938c5.609374 5.503906 7.9375 11.007812 7.9375 16.765625 0 5.761719-2.328126 11.265625-6.550782 15.53125l-108.03125 86.570312c-.578125.46875-1.214844.898438-1.835937 1.28125-3.753907 2.21875-7.550781 3.285157-11.582031 3.285157zm10.664062-170.003907v126.65625l79.210938-63.382812zm0 0"/><path d="m128.054688 362.773438c-4.035157 0-7.832032-1.066407-11.5625-3.285157-.640626-.382812-1.261719-.8125-1.835938-1.28125l-106.667969-85.332031c-5.609375-5.503906-7.9335935-11.007812-7.9335935-16.769531 0-5.757813 2.3242185-11.261719 6.5468745-15.53125l108.03125-86.570313c.578126-.46875 1.21875-.894531 1.835938-1.277344 14.65625-8.683593 32.917969 2.238282 32.917969 18.046876v170.667968c0 11.753906-9.578125 21.332032-21.332031 21.332032zm-89.878907-106.601563 79.210938 63.273437v-126.65625zm0 0"/><path d="m256.054688 512.105469c-5.761719 0-11.265626-2.324219-15.53125-6.546875l-86.570313-108.035156c-.46875-.574219-.898437-1.214844-1.28125-1.832032-2.21875-3.753906-3.285156-7.554687-3.285156-11.585937 0-11.753907 9.578125-21.332031 21.332031-21.332031h170.667969c11.753906 0 21.332031 9.578124 21.332031 21.332031 0 4.03125-1.066406 7.832031-3.285156 11.5625-.382813.640625-.808594 1.261719-1.277344 1.835937l-85.335938 106.667969c-5.503906 5.609375-11.007812 7.933594-16.765624 7.933594zm-63.320313-117.332031 63.382813 79.210937 63.273437-79.210937zm148.652344 0h.214843zm0 0"/><path d="m341.386719 149.441406h-170.667969c-11.753906 0-21.332031-9.578125-21.332031-21.335937 0-4.03125 1.066406-7.828125 3.285156-11.5625.382813-.640625.8125-1.257813 1.28125-1.832031l85.332031-106.667969c11.007813-11.179688 23.746094-9.8125 32.300782-1.367188l86.570312 108.035157c.46875.574218.894531 1.214843 1.277344 1.832031 2.21875 3.734375 3.285156 7.53125 3.285156 11.5625 0 11.757812-9.578125 21.335937-21.332031 21.335937zm-148.671875-32h126.65625l-63.382813-79.210937zm0 0"/></svg>