<svg xmlns="http://www.w3.org/2000/svg" viewBox="0 0 496 496"><path d="M248 0C111.033 0 0 111.033 0 248s111.033 248 248 248c136.901-.159 247.841-111.099 248-248C496 111.033 384.967 0 248 0zm0 480C119.87 480 16 376.13 16 248S119.87 16 248 16c128.072.141 231.859 103.928 232 232 0 128.13-103.87 232-232 232z"/><path d="M248 48C137.543 48 48 137.543 48 248s89.543 200 200 200c110.406-.123 199.877-89.594 200-200 0-110.457-89.543-200-200-200zm0 384c-101.62 0-184-82.38-184-184S146.38 64 248 64c101.573.115 183.885 82.427 184 184 0 101.62-82.38 184-184 184z"/><path d="M340.112 241.28l-135.768-87.768a8 8 0 0 0-12.344 6.72v175.536a8 8 0 0 0 12.344 6.72l135.768-87.768a8 8 0 0 0 0-13.44zM208 321.064V174.968L321.032 248 208 321.064z"/></svg>